<svg width="124" height="40" viewBox="0 0 124 40" fill="none" xmlns="http://www.w3.org/2000/svg">
<path d="M14.8138 6.69189V33.4079C14.8138 34.2825 14.4671 35.1213 13.8501 35.7398C13.233 36.3582 12.3961 36.7057 11.5234 36.7057H3.29043C2.41775 36.7057 1.58082 36.3582 0.963747 35.7398C0.346672 35.1213 0 34.2825 0 33.4079V9.99998C-2.35816e-07 9.56707 0.0851351 9.13841 0.250537 8.73851C0.415938 8.3386 0.658362 7.97528 0.963951 7.66933C1.26954 7.36338 1.63231 7.12079 2.0315 6.95544C2.43069 6.79009 2.85849 6.7052 3.29043 6.70566L14.8138 6.69189Z" fill="#00E091"/>
<path d="M25.6571 25.6282C25.4894 25.4511 25.3028 25.2929 25.1007 25.1566C24.5604 24.7899 23.9226 24.5944 23.27 24.5955C22.3973 24.5955 21.5604 24.9429 20.9433 25.5614C20.3263 26.1798 19.9796 27.0186 19.9796 27.8932V36.7056C19.9805 37.5796 20.3276 38.4176 20.9445 39.0353C21.5615 39.653 22.3979 39.9999 23.27 39.9999H32.0216C32.6182 39.9995 33.2035 39.8365 33.7148 39.5284C34.2261 39.2202 34.6442 38.7786 34.9244 38.2506C35.2045 37.7227 35.3362 37.1283 35.3052 36.5312C35.2743 35.934 35.0819 35.3566 34.7487 34.8605C34.6458 34.7082 34.5309 34.5643 34.4053 34.4302L25.6571 25.6282Z" fill="#00E091"/>
<path opacity="0.45" d="M3.29043 36.7057L14.8001 25.1704V6.6919H3.29043C2.85849 6.69144 2.43069 6.77632 2.0315 6.94167C1.63231 7.10702 1.26954 7.34961 0.963951 7.65556C0.658362 7.96151 0.415939 8.32482 0.250537 8.72473C0.0851351 9.12464 -2.35816e-07 9.5533 0 9.98621V33.3941C0 34.2687 0.346672 35.1075 0.963747 35.726C1.58082 36.3444 2.41775 36.6919 3.29043 36.6919V36.7057Z" fill="url(#paint0_radial)"/>
<path d="M11.5337 3.28744V20.5267C11.534 21.168 11.7212 21.7953 12.0721 22.3316C12.4231 22.8679 12.9226 23.2898 13.5094 23.5457C14.0962 23.8015 14.7447 23.8801 15.3755 23.7719C16.0062 23.6637 16.5917 23.3733 17.0601 22.9363L34.5324 5.42169L34.5873 5.35972C35.0741 4.78359 35.3343 4.04913 35.3189 3.29432C35.3194 2.86158 35.2346 2.433 35.0696 2.03311C34.9046 1.63322 34.6625 1.26988 34.3572 0.963879C34.0519 0.657883 33.6893 0.415241 33.2903 0.249847C32.8913 0.0844521 32.4637 -0.000451089 32.0319 1.8086e-06H14.8241C13.9529 -0.000912441 13.1171 0.344822 12.5001 0.961237C11.8831 1.57765 11.5355 2.41433 11.5337 3.28744Z" fill="#00E091"/>
<path d="M82.0169 10.7711C81.3942 10.5135 80.7259 10.3847 80.0523 10.3924C77.2599 10.3924 75.5288 12.0792 75.5288 14.7986V28.3614H77.5896V18.0344H81.2922V16.2478H77.5449V14.926C77.5449 13.0878 78.4174 12.1721 80.1381 12.1721C80.6981 12.1648 81.2543 12.2653 81.7765 12.4681L81.8177 12.4854L82.0616 10.8261L82.041 10.7883L82.0169 10.7711Z" fill="#292B35"/>
<path d="M55.0477 10.8675H57.8916L51.692 18.0034L57.9672 28.327H55.2778L50.1052 19.7762L46.9522 23.2943V28.327H44.6475V10.8675H46.9522V20.1342L55.0477 10.8675Z" fill="#292B35"/>
<path fill-rule="evenodd" clip-rule="evenodd" d="M65.3277 16.0069C67.2855 16.0069 68.9136 16.778 69.9233 18.1549V16.2582H71.9842V28.3614H69.9233V26.4509C68.9067 27.8451 67.2821 28.6093 65.3277 28.6093C61.8587 28.6093 59.2415 25.8451 59.2415 22.2719C59.2415 18.6988 61.8587 16.0069 65.3277 16.0069ZM61.2851 22.2616C61.2851 24.8158 63.1089 26.7366 65.5304 26.7366H65.5132C66.0969 26.7395 66.6753 26.6256 67.2146 26.4016C67.7538 26.1777 68.2431 25.8482 68.6538 25.4325C69.0644 25.0167 69.3882 24.5231 69.6062 23.9804C69.8242 23.4377 69.932 22.8569 69.9233 22.2719C69.9355 21.6904 69.8302 21.1124 69.6137 20.5727C69.3973 20.0331 69.0742 19.5428 68.6638 19.1315C68.2534 18.7203 67.7643 18.3964 67.2258 18.1795C66.6873 17.9625 66.1106 17.857 65.5304 17.8692C63.1089 17.8692 61.2851 19.7074 61.2851 22.2616Z" fill="#292B35"/>
<path fill-rule="evenodd" clip-rule="evenodd" d="M82.5424 22.327C82.5424 18.6747 85.1562 16.0241 88.7557 16.0241C89.6111 15.993 90.4627 16.1525 91.2491 16.4913C92.0355 16.83 92.7371 17.3394 93.3033 17.9828C93.861 18.6867 94.2586 19.5044 94.468 20.3785C94.6774 21.2526 94.6937 22.162 94.5157 23.043V23.0705H84.7063C85.0394 25.2599 86.8495 26.6747 89.3328 26.6747C90.8231 26.6942 92.291 26.31 93.5815 25.5628L93.6227 25.5421L93.9868 27.4286H93.9662C92.5845 28.2343 91.0102 28.6483 89.4118 28.6265C85.3657 28.6265 82.5424 26.0378 82.5424 22.327ZM84.7406 21.3907H92.6232V21.3735C92.4652 19.2805 91.0192 17.9483 88.8176 17.9483C86.6159 17.9483 84.9433 19.3597 84.7406 21.3907Z" fill="#292B35"/>
<path d="M103.827 16.0241C103.053 15.9972 102.283 16.1633 101.589 16.5076C100.894 16.8518 100.295 17.3634 99.8464 17.9965V16.2754H97.7855V28.3786H99.8464V21.5318C99.8464 19.4664 101.395 17.9552 103.528 17.9552C105.661 17.9552 106.898 19.2117 106.898 21.494V28.3614H108.941V21.0051C108.928 17.8761 107.018 16.0241 103.827 16.0241Z" fill="#292B35"/>
<path fill-rule="evenodd" clip-rule="evenodd" d="M120.625 16.4842C121.409 16.8259 122.107 17.3377 122.67 17.9828C123.227 18.687 123.624 19.5049 123.832 20.379C124.04 21.2532 124.055 22.1625 123.875 23.043V23.0705H114.069C114.399 25.2599 116.213 26.6747 118.696 26.6747C120.188 26.6999 121.66 26.3205 122.955 25.5766L122.996 25.5559L123.36 27.4286H123.34C121.958 28.2264 120.387 28.6344 118.792 28.6093C114.746 28.6093 111.923 26.0206 111.923 22.3098C111.923 18.6575 114.537 16.0069 118.136 16.0069C118.991 15.9795 119.84 16.1425 120.625 16.4842ZM114.104 21.3735H122.004C121.846 19.2805 120.382 17.9311 118.181 17.9311C115.979 17.9311 114.306 19.3425 114.104 21.3735Z" fill="#292B35"/>
<defs>
<radialGradient id="paint0_radial" cx="0" cy="0" r="1" gradientUnits="userSpaceOnUse" gradientTransform="translate(25.0336 14.1487) rotate(146.411) scale(32.5589 27.867)">
<stop offset="0.43" stop-color="#06A27E"/>
<stop offset="0.58" stop-color="#28BE95" stop-opacity="0.65"/>
<stop offset="0.71" stop-color="#42D5A8" stop-opacity="0.37"/>
<stop offset="0.83" stop-color="#55E5B5" stop-opacity="0.17"/>
<stop offset="0.93" stop-color="#61EEBD" stop-opacity="0.04"/>
<stop offset="1" stop-color="#65F2C0" stop-opacity="0"/>
</radialGradient>
</defs>
</svg>
